<svg width="357.000000" height="233.699951" viewBox="0 0 357 233.7" fill="none" xmlns="http://www.w3.org/2000/svg" xmlns:xlink="http://www.w3.org/1999/xlink">
	<desc>
			Created with Pixso.
	</desc>
	<defs>
		<clipPath id="clip461_238">
			<rect id="Frame" width="357.000000" height="233.699997" fill="white" fill-opacity="0"/>
		</clipPath>
	</defs>
	<rect id="Frame" width="357.000000" height="233.699997" fill="#FFFFFF" fill-opacity="0"/>
	<g clip-path="url(#clip461_238)">
		<path id="Vector" d="M337.3 225.4L24.1001 225.4C19.8999 225.4 16.5 222 16.5 217.8L16.5 7.6001C16.5 3.3999 19.8999 0 24.1001 0L337.3 0C341.5 0 344.9 3.3999 344.9 7.6001L344.9 217.7C345 222 341.5 225.4 337.3 225.4Z" fill="#00D5E4" fill-opacity="1.000000" fill-rule="nonzero"/>
		<path id="Vector" d="M326.2 217.8L35.2002 217.8C31 217.8 27.6001 214.4 27.6001 210.2L27.6001 15.3C27.6001 11.0999 31 7.69995 35.2002 7.69995L326.2 7.69995C330.4 7.69995 333.8 11.0999 333.8 15.3L333.8 210.2C333.9 214.3 330.4 217.8 326.2 217.8Z" fill="#065090" fill-opacity="1.000000" fill-rule="nonzero"/>
		<path id="Vector" d="M75.3999 28.8999L115.6 28.8999L115.6 33.3999L75.3999 33.3999L75.3999 28.8999Z" fill="#FCFDFD" fill-opacity="1.000000" fill-rule="evenodd"/>
		<path id="Vector" d="M75.3999 38.8999L101 38.8999L101 43.3999L75.3999 43.3999L75.3999 38.8999Z" fill="#FCFDFD" fill-opacity="1.000000" fill-rule="evenodd"/>
		<path id="Vector" d="M115.4 38.8999L218.5 38.8999L218.5 43.3999L115.4 43.3999L115.4 38.8999Z" fill="#FCFDFD" fill-opacity="1.000000" fill-rule="evenodd"/>
		<path id="Vector" d="M228.5 38.8999L282.5 38.8999L282.5 43.3999L228.5 43.3999L228.5 38.8999Z" fill="#FF6452" fill-opacity="1.000000" fill-rule="evenodd"/>
		<path id="Vector" d="M85.3999 48.8999L150.5 48.8999L150.5 53.3999L85.3999 53.3999L85.3999 48.8999Z" fill="#00D050" fill-opacity="1.000000" fill-rule="evenodd"/>
		<path id="Vector" d="M170.5 48.8999L267.5 48.8999L267.5 53.3999L170.5 53.3999L170.5 48.8999Z" fill="#FCFDFD" fill-opacity="1.000000" fill-rule="evenodd"/>
		<path id="Vector" d="M75.3999 58.8999L167 58.8999L167 63.3999L75.3999 63.3999L75.3999 58.8999Z" fill="#FF6452" fill-opacity="1.000000" fill-rule="evenodd"/>
		<path id="Vector" d="M175.4 58.8999L240.5 58.8999L240.5 63.3999L175.4 63.3999L175.4 58.8999Z" fill="#00D5E4" fill-opacity="1.000000" fill-rule="evenodd"/>
		<path id="Vector" d="M85.3999 68.8999L150.5 68.8999L150.5 73.3999L85.3999 73.3999L85.3999 68.8999Z" fill="#FCFDFD" fill-opacity="1.000000" fill-rule="evenodd"/>
		<path id="Vector" d="M75.3999 78.8999L170.5 78.8999L170.5 83.3999L75.3999 83.3999L75.3999 78.8999Z" fill="#FCFDFD" fill-opacity="1.000000" fill-rule="evenodd"/>
		<path id="Vector" d="M75.3999 88.8999L140.5 88.8999L140.5 93.3999L75.3999 93.3999L75.3999 88.8999Z" fill="#FCFDFD" fill-opacity="1.000000" fill-rule="evenodd"/>
		<path id="Vector" d="M95.3999 98.8999L204 98.8999L204 103.4L95.3999 103.4L95.3999 98.8999Z" fill="#FF6452" fill-opacity="1.000000" fill-rule="evenodd"/>
		<path id="Vector" d="M215.4 98.8999L250.5 98.8999L250.5 103.4L215.4 103.4L215.4 98.8999Z" fill="#FCFDFD" fill-opacity="1.000000" fill-rule="evenodd"/>
		<path id="Vector" d="M265.4 98.8999L300.5 98.8999L300.5 103.4L265.4 103.4L265.4 98.8999Z" fill="#FCFDFD" fill-opacity="1.000000" fill-rule="evenodd"/>
		<path id="Vector" d="M105.4 108.9L149.7 108.9L149.7 113.4L105.4 113.4L105.4 108.9Z" fill="#FCFDFD" fill-opacity="1.000000" fill-rule="evenodd"/>
		<path id="Vector" d="M105.4 118.9L164.5 118.9L164.5 123.4L105.4 123.4L105.4 118.9Z" fill="#FF6452" fill-opacity="1.000000" fill-rule="evenodd"/>
		<path id="Vector" d="M185.4 118.9L250.5 118.9L250.5 123.4L185.4 123.4L185.4 118.9Z" fill="#FCFDFD" fill-opacity="1.000000" fill-rule="evenodd"/>
		<path id="Vector" d="M265.4 118.9L292.5 118.9L292.5 123.4L265.4 123.4L265.4 118.9Z" fill="#FF6452" fill-opacity="1.000000" fill-rule="evenodd"/>
		<path id="Vector" d="M75.3999 128.9L115.4 128.9L115.4 133.4L75.3999 133.4L75.3999 128.9Z" fill="#FCFDFD" fill-opacity="1.000000" fill-rule="evenodd"/>
		<path id="Vector" d="M75.3999 138.9L140.5 138.9L140.5 143.4L75.3999 143.4L75.3999 138.9Z" fill="#FCFDFD" fill-opacity="1.000000" fill-rule="evenodd"/>
		<path id="Vector" d="M105.4 148.9L223.5 148.9L223.5 153.4L105.4 153.4L105.4 148.9Z" fill="#FCFDFD" fill-opacity="1.000000" fill-rule="evenodd"/>
		<path id="Vector" d="M235.4 148.9L308.5 148.9L308.5 153.4L235.4 153.4L235.4 148.9Z" fill="#00D5E4" fill-opacity="1.000000" fill-rule="evenodd"/>
		<path id="Vector" d="M105.4 158.9L145.5 158.9L145.5 163.4L105.4 163.4L105.4 158.9Z" fill="#FCFDFD" fill-opacity="1.000000" fill-rule="evenodd"/>
		<path id="Vector" d="M155.4 158.9L195.5 158.9L195.5 163.4L155.4 163.4L155.4 158.9Z" fill="#00D050" fill-opacity="1.000000" fill-rule="evenodd"/>
		<path id="Vector" d="M205.4 158.9L245.5 158.9L245.5 163.4L205.4 163.4L205.4 158.9Z" fill="#FCFDFD" fill-opacity="1.000000" fill-rule="evenodd"/>
		<path id="Vector" d="M75.3999 168.9L140.5 168.9L140.5 173.4L75.3999 173.4L75.3999 168.9Z" fill="#FCFDFD" fill-opacity="1.000000" fill-rule="evenodd"/>
		<path id="Vector" d="M95.3999 178.9L160.5 178.9L160.5 183.4L95.3999 183.4L95.3999 178.9Z" fill="#00D050" fill-opacity="1.000000" fill-rule="evenodd"/>
		<path id="Vector" d="M172.9 178.9L238 178.9L238 183.4L172.9 183.4L172.9 178.9Z" fill="#00D050" fill-opacity="1.000000" fill-rule="evenodd"/>
		<path id="Vector" d="M171.5 198.9L208 198.9L208 203.4L171.5 203.4L171.5 198.9Z" fill="#FCFDFD" fill-opacity="1.000000" fill-rule="evenodd"/>
		<path id="Vector" d="M95.3999 188.9L192 188.9L192 193.4L95.3999 193.4L95.3999 188.9Z" fill="#FCFDFD" fill-opacity="1.000000" fill-rule="evenodd"/>
		<path id="Vector" d="M45.8 28.8999L50.3 28.8999L50.3 33.3999L45.8 33.3999L45.8 28.8999Z" fill="#5E94C1" fill-opacity="1.000000" fill-rule="evenodd"/>
		<path id="Vector" d="M45.8 38.8999L50.3 38.8999L50.3 43.3999L45.8 43.3999L45.8 38.8999Z" fill="#5E94C1" fill-opacity="1.000000" fill-rule="evenodd"/>
		<path id="Vector" d="M45.8 48.8999L50.3 48.8999L50.3 53.3999L45.8 53.3999L45.8 48.8999Z" fill="#5E94C1" fill-opacity="1.000000" fill-rule="evenodd"/>
		<path id="Vector" d="M45.8 58.8999L50.3 58.8999L50.3 63.3999L45.8 63.3999L45.8 58.8999Z" fill="#5E94C1" fill-opacity="1.000000" fill-rule="evenodd"/>
		<path id="Vector" d="M45.8 68.8999L50.3 68.8999L50.3 73.3999L45.8 73.3999L45.8 68.8999Z" fill="#5E94C1" fill-opacity="1.000000" fill-rule="evenodd"/>
		<path id="Vector" d="M45.8 78.8999L50.3 78.8999L50.3 83.3999L45.8 83.3999L45.8 78.8999Z" fill="#5E94C1" fill-opacity="1.000000" fill-rule="evenodd"/>
		<path id="Vector" d="M45.8 88.8999L50.3 88.8999L50.3 93.3999L45.8 93.3999L45.8 88.8999Z" fill="#5E94C1" fill-opacity="1.000000" fill-rule="evenodd"/>
		<path id="Vector" d="M45.8 98.8999L50.3 98.8999L50.3 103.4L45.8 103.4L45.8 98.8999Z" fill="#5E94C1" fill-opacity="1.000000" fill-rule="evenodd"/>
		<path id="Vector" d="M45.8 108.9L50.3 108.9L50.3 113.4L45.8 113.4L45.8 108.9Z" fill="#5E94C1" fill-opacity="1.000000" fill-rule="evenodd"/>
		<path id="Vector" d="M45.8 118.9L50.3 118.9L50.3 123.4L45.8 123.4L45.8 118.9Z" fill="#5E94C1" fill-opacity="1.000000" fill-rule="evenodd"/>
		<path id="Vector" d="M45.8 128.9L50.3 128.9L50.3 133.4L45.8 133.4L45.8 128.9Z" fill="#5E94C1" fill-opacity="1.000000" fill-rule="evenodd"/>
		<path id="Vector" d="M45.8 138.9L50.3 138.9L50.3 143.4L45.8 143.4L45.8 138.9Z" fill="#5E94C1" fill-opacity="1.000000" fill-rule="evenodd"/>
		<path id="Vector" d="M45.8 148.9L50.3 148.9L50.3 153.4L45.8 153.4L45.8 148.9Z" fill="#5E94C1" fill-opacity="1.000000" fill-rule="evenodd"/>
		<path id="Vector" d="M45.8 158.9L50.3 158.9L50.3 163.4L45.8 163.4L45.8 158.9Z" fill="#5E94C1" fill-opacity="1.000000" fill-rule="evenodd"/>
		<path id="Vector" d="M45.8 168.9L50.3 168.9L50.3 173.4L45.8 173.4L45.8 168.9Z" fill="#5E94C1" fill-opacity="1.000000" fill-rule="evenodd"/>
		<path id="Vector" d="M45.8 178.9L50.3 178.9L50.3 183.4L45.8 183.4L45.8 178.9Z" fill="#5E94C1" fill-opacity="1.000000" fill-rule="evenodd"/>
		<path id="Vector" d="M45.8 188.9L50.3 188.9L50.3 193.4L45.8 193.4L45.8 188.9Z" fill="#5E94C1" fill-opacity="1.000000" fill-rule="evenodd"/>
		<path id="Vector" d="M45.8 198.9L50.3 198.9L50.3 203.4L45.8 203.4L45.8 198.9Z" fill="#5E94C1" fill-opacity="1.000000" fill-rule="evenodd"/>
		<path id="Vector" d="M95.3999 198.9L143.7 198.9L143.7 203.4L95.3999 203.4L95.3999 198.9Z" fill="#FCFDFD" fill-opacity="1.000000" fill-rule="evenodd"/>
		<path id="Vector" d="M284.7 203.3L265.7 195.2L265.7 191.9L284.7 183.8L284.7 187.3L269.6 193.5L284.7 199.7L284.7 203.3Z" fill="#FCFDFD" fill-opacity="1.000000" fill-rule="nonzero"/>
		<path id="Vector" d="M298.1 179L289.8 207.7L287 207.7L295.3 179L298.1 179Z" fill="#FCFDFD" fill-opacity="1.000000" fill-rule="nonzero"/>
		<path id="Vector" d="M319.3 195.2L300.3 203.3L300.3 199.8L315.4 193.6L300.3 187.4L300.3 183.9L319.3 192L319.3 195.2Z" fill="#FCFDFD" fill-opacity="1.000000" fill-rule="nonzero"/>
		<path id="Vector" d="M337 233.7L20 233.7C9 233.7 0 224.7 0 213.7L357 213.7C357 224.8 348 233.7 337 233.7Z" fill="#00BBD3" fill-opacity="1.000000" fill-rule="nonzero"/>
		<g opacity="0.100000">
			<g opacity="0.100000">
				<g opacity="0.100000">
					<path id="Vector" d="M129.4 217.8L204 7.6001L175.7 7.6001L101.1 217.8L129.4 217.8Z" fill="#FFFFFF" fill-opacity="1.000000" fill-rule="nonzero"/>
				</g>
			</g>
			<g opacity="0.100000">
				<g opacity="0.100000">
					<path id="Vector" d="M35.3 217.8L48.6001 217.8L123.2 7.6001L35.3 7.6001C31.1001 7.6001 27.7002 11 27.7002 15.2002L27.7002 210.1C27.6001 214.3 31.1001 217.8 35.3 217.8Z" fill="#FFFFFF" fill-opacity="1.000000" fill-rule="nonzero"/>
				</g>
			</g>
			<g opacity="0.100000">
				<g opacity="0.100000">
					<path id="Vector" d="M287.6 217.8L326.3 217.8C330.5 217.8 333.9 214.4 333.9 210.2L333.9 87.3999L287.6 217.8Z" fill="#FFFFFF" fill-opacity="1.000000" fill-rule="nonzero"/>
				</g>
			</g>
		</g>
		<g opacity="0.100000">
			<g opacity="0.100000">
				<g opacity="0.100000">
					<path id="Vector" d="M184.3 217.8L236.2 217.8L310.8 7.6001L258.9 7.6001L184.3 217.8Z" fill="#FFFFFF" fill-opacity="1.000000" fill-rule="nonzero"/>
				</g>
			</g>
		</g>
		<path id="Vector" d="M354.3 223.7C356 220.8 357 217.3 357 213.7L0 213.7C0 217.3 1 220.8 2.69995 223.7L354.3 223.7Z" fill="#15D7E2" fill-opacity="1.000000" fill-rule="nonzero"/>
	</g>
</svg>
