<svg width="191.472656" height="33.597656" viewBox="0 0 191.473 33.5977" fill="none" xmlns="http://www.w3.org/2000/svg" xmlns:xlink="http://www.w3.org/1999/xlink">
	<desc>
			Created with Pixso.
	</desc>
	<defs>
		<linearGradient id="paint_linear_463_64_0" x1="0.293954" y1="11.597641" x2="135.246262" y2="16.185867" gradientUnits="userSpaceOnUse">
			<stop stop-color="#9D61FF"/>
			<stop stop-color="#34547A"/>
		</linearGradient>
	</defs>
	<path id="IBRAIN" d="M9.50391 0L0 0L0 33.5977L9.50391 33.5977L9.50391 0ZM49.4867 18.6603Q47.9334 16.9469 45.4484 16.0781Q47.156 15.2105 48.2457 13.8484Q48.5394 13.4812 48.7882 13.0781Q49.0883 12.592 49.3115 12.0729Q49.9601 10.5646 49.9601 8.77734Q49.9601 6.85681 49.1968 5.31396Q48.3578 3.61834 46.5968 2.37891Q43.2453 0 36.8117 0L19.632 0L19.632 33.5977L37.7726 33.5977Q44.4875 33.5977 48.0382 31.1953Q49.718 30.0626 50.6057 28.4844Q51.6007 26.7154 51.6007 24.3867Q51.6007 22.0505 50.6212 20.2461Q50.333 19.7153 49.9601 19.2305Q49.7354 18.9346 49.4867 18.6603ZM69.4079 24.668L74.5876 24.668L80.6813 33.5977L90.8649 33.5977L83.611 23.0391Q86.1608 21.802 87.7593 19.8038Q88.1444 19.3224 88.4743 18.7969Q88.6598 18.5021 88.8252 18.1964Q90.1852 15.6829 90.1852 12.4336Q90.1852 9.12046 88.7933 6.56577Q88.59 6.19277 88.3571 5.83594Q87.9797 5.2516 87.5356 4.7234Q85.8419 2.70935 83.1774 1.51172Q79.8259 0 75.2556 0L59.904 0L59.904 33.5977L69.4079 33.5977L69.4079 24.668ZM107.081 27.0703L121.296 27.0703L123.932 33.5977L133.823 33.5977L118.94 0L109.577 0L94.7527 33.5977L104.444 33.5977L107.081 27.0703ZM149.376 0L139.872 0L139.872 33.5977L149.376 33.5977L149.376 0ZM191.473 33.5977L191.473 0L182.156 0L182.156 17.9062L167.32 0L159.504 0L159.504 33.5977L168.809 33.5977L168.809 15.6914L183.645 33.5977L191.473 33.5977ZM29.0422 13.3359L29.0422 6.86719L35.5695 6.86719Q38.8777 6.86719 39.9025 8.39692Q40.3625 9.08346 40.3625 10.0781Q40.3625 11.1076 39.8838 11.8118Q38.8479 13.3359 35.5695 13.3359L29.0422 13.3359ZM79.7519 9.50235Q80.5876 10.6686 80.5876 12.4336Q80.5876 14.1811 79.7602 15.3357Q79.4779 15.7297 79.0993 16.0547Q77.611 17.3203 74.6813 17.3203L69.4079 17.3203L69.4079 7.48828L74.6813 7.48828Q77.611 7.48828 79.0993 8.78906Q79.4724 9.1122 79.7519 9.50235ZM114.194 9.30469L118.507 20.0625L109.87 20.0625L114.194 9.30469ZM41.486 25.1451Q40.4031 26.7305 36.9992 26.7305L29.0422 26.7305L29.0422 19.9219L36.9992 19.9219Q40.4105 19.9219 41.4908 21.5087Q41.9914 22.2441 41.9914 23.3203Q41.9914 24.4053 41.486 25.1451Z" fill="url(#paint_linear_463_64_0)" fill-opacity="1.000000" fill-rule="evenodd"/>
</svg>
